<?xml version="1.0" encoding="UTF-8"?>
<svg id="Layer_1" xmlns="http://www.w3.org/2000/svg" version="1.1" viewBox="0 0 512 512">
  <!-- Generator: Adobe Illustrator 29.0.1, SVG Export Plug-In . SVG Version: 2.1.0 Build 192)  -->
  <defs>
    <style>
      .st0 {
        fill: #fff;
      }

      .st1 {
        fill: #265787;
      }

      .st2 {
        fill: #ea7600;
      }
    </style>
  </defs>
  <path class="st2" d="M311.6,140.1c.8-3.1-.8-2.2-1.7-3-19.5-17.4-46.6-34.1-64.5-52-22.1-22.1,14.5-44.6,39.4-31.5,53.6,46.1,120,85.2,172,132.4,79.7,72.3,65.2,192.3-24.7,248.3-61.3,38.1-144.4,37.4-204.6-2.6-42.7-28.4-76.8-80.9-70.1-133.8l-105.4,85.6c-41.1,23-71.6-18.2-36.6-50.7l186-143.5h-110.8c-.6,0-7.7-3.4-8.9-4.1-17.4-11.4-6.8-33.6,9-41,1.7-.8,10.4-4,11.5-4h209.3ZM323,189.6c-69.9,5.3-124.4,75.1-88.6,141.9,31.9,59.5,118.8,71.9,169.8,29.7,80.6-66.6,17.1-179.1-81.2-171.6Z"/>
  <path class="st0" d="M323,189.6c98.3-7.5,161.8,105,81.2,171.6-51,42.2-137.9,29.9-169.8-29.7-35.8-66.9,18.7-136.6,88.6-141.9ZM324.2,223.2c-79,9-76.5,118.5,4.8,123.8,98.4,6.4,96.5-135.3-4.8-123.8Z"/>
  <path class="st1" d="M324.2,223.2c101.3-11.5,103.2,130.2,4.8,123.8-81.3-5.3-83.8-114.8-4.8-123.8Z"/>
</svg>