<svg id="Capa_1" enable-background="new 0 0 512.274 512.274" height="512" viewBox="0 0 512.274 512.274" width="512" xmlns="http://www.w3.org/2000/svg"><g id="Layer_2_12_"><g id="Surfaces_13_"><g id="_3D_Substance_Surface_3_"><g id="Outline_no_shadow_13_"><path d="m90.715 6.403h330.844c50.1 0 90.715 40.615 90.715 90.715v318.037c0 50.1-40.615 90.715-90.715 90.715h-330.844c-50.1 0-90.715-40.614-90.715-90.715v-318.036c0-50.101 40.615-90.716 90.715-90.716z" fill="#1e3101"/></g></g></g><g id="Outlined_Mnemonics_Logos_11_"><g id="Pt"><g fill="#99e83f"><path d="m110.803 356.66v-219.593c0-1.601.687-2.406 2.062-2.406 3.663 0 8.015-.058 13.059-.173 5.035-.113 10.478-.226 16.322-.344 5.842-.113 12.028-.228 18.557-.344 6.529-.113 13.001-.171 19.417-.173 17.409 0 32.07 2.177 43.987 6.529 10.749 3.635 20.551 9.624 28.694 17.526 6.903 6.85 12.237 15.116 15.637 24.228 3.215 8.867 4.843 18.233 4.811 27.663 0 18.331-4.239 33.451-12.715 45.362-8.534 11.96-20.527 21.014-34.365 25.947-15.424 5.554-31.72 8.29-48.111 8.077-5.042 0-8.591-.058-10.653-.173-2.062-.113-5.155-.171-9.279-.173v67.699c.213 1.494-.824 2.879-2.318 3.093-.256.036-.517.036-.773 0h-41.927c-1.605.004-2.405-.907-2.405-2.745zm47.423-180.76v71.136c2.975.23 5.725.346 8.248.344 12.207 0 24.085.125 35.909-3.436 15.464-4.658 24.229-17.518 24.229-33.333 0-13.422-7.233-26.05-19.929-31.1-12.679-5.043-26.309-4.481-39.693-4.124-4.243.116-7.163.289-8.764.513z"/><path d="m400.841 325.388v28.179c0 2.523-.916 4.013-2.749 4.467-4.51 1.413-9.101 2.561-13.746 3.436-5.443.969-10.967 1.43-16.495 1.375-14.897 0-26.579-3.895-35.052-11.684-8.478-7.786-12.717-20.271-12.715-37.458v-85.225h-20.275c-1.836 0-2.749-1.031-2.749-3.093v-34.021c0-1.831 1.031-2.747 3.093-2.749h20.275c.226-3.893.512-8.418.86-13.573.344-5.155.8-10.309 1.375-15.464.57-5.155 1.084-9.336 1.545-12.542.226-.687.576-1.328 1.031-1.889.444-.559 1.039-.978 1.718-1.202l40.894-5.155c.896-.147 1.477-.147 1.889.094.455.231.517.824.517 1.968-.461 5.272-.805 12.433-1.031 21.477-.231 9.052-.461 17.816-.687 26.288h31.96c1.375 0 2.062.916 2.062 2.749v34.709c.175 1.135-.587 2.203-1.718 2.406h-32.647v73.541c0 7.791 1.317 13.347 3.953 16.666 2.63 3.323 7.498 4.986 14.604 4.984 2.062 0 4.004-.053 5.842-.173 1.831-.113 3.665-.284 5.498-.514.623-.233 1.319-.171 1.889.171.569.343.859 1.088.859 2.232z"/></g></g></g></g></svg>