<?xml version="1.0" encoding="UTF-8"?>
<svg id="Layer_1" data-name="Layer 1" xmlns="http://www.w3.org/2000/svg" viewBox="0 0 5981.02 3000">
  <defs>
    <style>
      .cls-1 {
        fill: #fff;
      }
    </style>
  </defs>
  <path class="cls-1" d="M2112.46,1501.81c-12.16-26.08-27.82-50.44-45.16-73.35-10.65-14.08-22.07-27.47-33.77-40.67-41.92-47.27-67.81-109.3-87.43-168.67-10.2-30.88-18.19-62.47-24.26-94.41-10.07-53-19.37-107.04-42.07-156.42-27.87-60.63-81.3-112.56-147.27-128.61-15.29-3.72-30.83-6.27-46.45-8.1,31.86-33.68-27.04-71.01-27.04-71.01,7.6,33.68-51.05,63.92-51.05,63.92,49.96-72.75-59.73-104.28-59.73-104.28,23.89,74.94-81.46,92.32-81.46,92.32,24.98-23.89,22.81-52.13,22.81-52.13-34.38,47.42-103.24,70.85-130.46,78.57-1.04.24-2.08.48-3.12.73-2.8.68-5.58,1.43-8.33,2.24h0c-62.12,18.23-112.25,68.31-138.94,126.37-22.7,49.38-32,103.41-42.07,156.42-6.07,31.94-14.06,63.53-24.26,94.41-19.62,59.38-45.51,121.4-87.43,168.67-11.7,13.2-23.12,26.59-33.77,40.67-17.34,22.91-33,47.27-45.16,73.35-19.53,41.88-29.73,89.43-17.76,134.95,7.9,30.05,24.91,57.01,47.2,78.49,7.22,6.95,14.98,13.38,23.23,19.08,1.01.69,9.67,5.06,9.79,6.19-4.71-47.06,22.63-82.18,22.63-82.18-31.5,352.98,92.86,462.13,92.86,462.13,93.95,37.47,240.02-13.58,240.02-13.58l2.17-53.52c-58.11-4.34-77.65-43.14-77.65-43.14,54.3,52.13,225.72,43.99,225.72,43.99,0,0,171.42,8.15,225.72-43.99,0,0-19.55,38.79-77.65,43.14l2.17,53.52s146.08,51.05,240.02,13.58c0,0,124.36-109.15,92.86-462.13,0,0,27.33,35.12,22.63,82.18.11-1.12,8.78-5.49,9.79-6.19,8.25-5.7,16.01-12.13,23.23-19.08,22.29-21.47,39.3-48.43,47.2-78.49,11.97-45.52,1.77-93.07-17.76-134.95Z"/>
  <g>
    <path class="cls-1" d="M1106.84,931.88c-1.62,43.68-30.74,71.19-87.37,80.9-43.69,8.09-174.74,33.98-393.18,76.05-17.8,1.62-27.51,17.8-27.51,35.6,8.09,77.66,12.94,134.3,17.8,169.89,0,14.56,14.56,29.12,29.12,29.12,93.85,6.47,153.71,12.94,177.98,17.8,8.09,1.62,17.8,4.86,29.12,9.71,37.21,17.8,46.92,66.34,16.18,97.08-11.33,11.33-21.03,21.03-30.74,25.89-25.89,11.33-84.14,30.74-174.75,56.63-16.18,4.85-24.27,14.56-24.27,30.74-4.85,266.97-6.47,432.01-8.09,496.73-1.62,50.16-8.09,88.99-21.03,116.5-9.71,22.65-46.92,48.54-67.96,48.54-24.27,1.62-59.87-22.65-71.19-43.69-17.8-30.74-27.51-67.96-29.12-114.88-8.09-127.82-27.51-422.3-56.63-885.05-1.62-21.03-3.24-48.54-4.85-85.75-1.62-37.21-1.62-61.48-3.24-72.81-3.24-64.72,21.03-101.93,72.81-113.26,134.3-27.51,294.48-56.63,480.55-87.37,21.03-3.24,51.78,0,92.23,9.71,59.87,14.56,87.37,48.54,84.14,101.94Z"/>
    <path class="cls-1" d="M2554.96,1132.51c-22.65,8.09-33.98,24.27-33.98,48.54v163.42c0,24.27,0,69.57-1.62,132.68v147.24c0,66.34-1.62,184.45-1.62,268.59v9.71c0,111.64-32.36,168.27-95.46,171.51-25.89,1.62-67.96-35.6-82.52-67.96-17.8-37.21-27.51-87.37-29.13-148.86-3.24-74.43-8.09-242.7-14.56-503.2-1.62-24.27-1.62-58.25-1.62-103.55,0-27.51-24.27-51.78-51.78-51.78-56.63,1.62-98.7,0-122.97-1.62-51.78,0-88.99-30.74-88.99-82.52,0-48.54,35.6-80.9,64.72-87.37,215.19-63.1,394.79-84.14,542.03-64.72,16.18,1.62,46.92,16.18,93.84,42.07,27.51,14.56,24.27,55.01-6.47,66.34-14.56,4.85-71.19,25.89-169.89,61.48Z"/>
    <path class="cls-1" d="M3789.51,1782.95c-11.33,42.07-33.98,85.75-67.96,132.68-111.64,153.71-268.59,232.99-470.84,241.08-95.46,4.86-182.84-24.27-260.5-87.37-76.05-61.48-122.97-140.77-139.15-237.85-17.8-101.93-12.94-197.4,12.94-283.15,67.96-228.14,194.16-419.06,380.23-574.39,42.07-35.6,88.99-63.1,139.15-80.9,59.87-22.65,118.12,6.47,137.53,58.25,19.42,50.16-4.85,116.5-55.01,140.77-108.41,50.16-195.78,126.21-258.88,221.67-59.87,92.23-100.32,184.45-132.68,296.1-16.18,51.78-22.65,108.41-19.42,168.27,1.62,17.8,22.65,25.89,35.6,14.56,92.23-82.52,169.89-144,229.76-186.07,72.81-50.16,147.24-84.14,221.67-98.7,166.66-38.83,300.95,110.02,247.56,275.06ZM3541.96,1723.09c-87.37,30.74-182.84,90.61-284.77,176.36-12.94,11.33-6.47,32.36,11.33,32.36,150.47-1.62,249.17-63.1,296.1-186.07,6.47-14.56-8.09-29.12-22.65-22.65Z"/>
    <path class="cls-1" d="M4637.37,1846.05c-4.86,50.16-27.51,80.9-64.72,90.61-38.83,8.09-71.19-9.71-95.46-53.4-8.09-14.56-19.42-37.21-33.98-71.19-6.47-14.56-27.51-21.03-40.45-8.09-6.47,6.47-9.71,9.71-11.33,9.71-111.64,97.08-210.34,84.14-281.53-43.69-27.51-46.92-48.54-101.93-63.1-165.04-17.8-79.28-40.45-192.54-64.72-338.16-8.09-45.31,8.09-74.43,46.92-85.75,45.3-12.94,74.43,4.85,88.99,55.01,8.09,24.27,16.18,58.25,27.51,101.93,11.33,43.69,19.42,76.05,24.27,93.84,6.47,24.27,29.13,101.94,69.58,231.38,4.85,21.03,32.36,19.42,45.31,1.62,17.8-27.51,33.98-58.25,46.92-95.46,14.56-37.21,24.27-67.96,29.12-90.61,4.85-24.27,12.94-59.87,21.03-106.79,1.62-12.94,9.71-76.05,24.27-189.31,6.47-59.87,35.6-90.61,87.37-92.23,48.54-1.62,77.67,25.89,88.99,80.9,6.47,33.98,11.33,76.05,16.18,129.44,8.09,93.85,19.42,252.41,37.21,474.08,1.62,33.98,3.24,58.25,1.62,71.19Z"/>
    <path class="cls-1" d="M5590.38,943.2c0,1.62-6.47,30.74-17.8,90.61-131.06,626.17-205.49,983.75-223.29,1074.36-1.62,1.62-3.24,9.71-4.86,21.03-4.85,24.27-4.85,25.89-11.33,43.69-8.09,21.03-24.27,33.98-53.39,37.21-53.39,6.47-87.37-24.27-101.93-92.23-11.33-53.39-17.8-103.55-17.8-150.47,0-27.51,3.24-95.46,9.71-207.11,1.62-16.18-4.85-29.13-19.42-38.83-110.02-74.43-179.6-156.95-226.52-263.74-30.74-76.05-46.92-129.44-64.72-215.19-14.56-88.99-21.03-137.53-29.12-232.99-3.24-24.27-1.62-50.16,4.85-76.05,14.56-59.87,42.07-97.08,98.7-97.08,53.39,0,85.75,32.36,98.7,98.7,12.94,72.81,25.89,200.63,43.68,270.21,8.09,32.36,16.18,58.25,22.65,79.28,12.94,38.83,43.69,101.93,82.52,147.24,17.8,21.03,53.39,14.56,59.87-12.94,66.34-215.2,98.7-321.99,98.7-321.99,24.27-79.28,48.54-145.62,72.81-200.63,27.51-63.1,66.34-87.37,116.5-74.43,50.16,11.33,69.58,51.78,61.48,121.35Z"/>
  </g>
</svg>